<?xml version="1.0" encoding="UTF-8" standalone="no"?><!DOCTYPE svg PUBLIC "-//W3C//DTD SVG 1.1//EN" "http://www.w3.org/Graphics/SVG/1.1/DTD/svg11.dtd"><svg width="100%" height="100%" viewBox="0 0 1563 1563" version="1.1" xmlns="http://www.w3.org/2000/svg" xmlns:xlink="http://www.w3.org/1999/xlink" xml:space="preserve" xmlns:serif="http://www.serif.com/" style="fill-rule:evenodd;clip-rule:evenodd;stroke-linejoin:round;stroke-miterlimit:2;"><g id="JOOD-HARVEST" serif:id="JOOD HARVEST"><path d="M1562.498,46.539l-0,1515.959c-6.483,1.495 -6.562,0 -83.159,0l-1479.34,0c-1.567,-2.91 0,-6.611 0,-9.917l0,-1552.582c3.278,-1.765 3.567,0 46.539,0l1515.959,0c1.765,3.278 -0,3.567 -0,46.539Z" style="fill:#fefefe;"/><path d="M370.035,944.987c-0.692,-0.058 -7.904,-0.666 -8.516,-1.668c-1.409,-2.311 2.241,-3.523 2.58,-3.636c35.803,-11.889 32.559,-33.635 32.317,-171.404c-0.065,-37.268 2.512,-43.796 -17.184,-47.418c-1.498,-0.276 -3.658,-4.153 3.02,-3.715c29.745,1.95 67.447,0.028 68.812,0.063c4.338,0.11 3.42,3.267 1.318,3.674c-15.164,2.939 -16.315,5.575 -16.447,24.508c-0.333,47.689 -1.207,49.549 2.737,50.426c2.035,0.452 60.498,0.302 62.599,0.046c10.067,-1.229 -6.23,-59.39 12.87,-94.343c14.353,-26.266 43.977,-31.64 58.745,-30.237c16.046,1.524 -3.368,6.139 -7.449,8.663c-19.96,12.345 -22.755,22.022 -21.787,143.266c0.384,48.136 -2.113,54.733 17.027,58.234c3.121,0.571 3.222,4.065 -1.483,3.841c-50.818,-2.418 -70.613,0.181 -71.521,-0.113c-12.556,-4.054 8.354,-0.292 14.639,-11.837c2.386,-4.384 1.879,-4.601 2.445,-62.342c0.071,-7.246 -10.605,-4.953 -12.659,-4.956c-53.489,-0.07 -55.548,-0.524 -55.988,3.499c-4.268,39.039 20.815,132.101 -66.076,135.447Z" style="fill:#3a522a;"/><path d="M578.574,823.198c0.932,-9.273 0.26,-26.729 13.406,-43.627c8.223,-10.57 23.979,-18.996 32.234,-25.769c14.85,-12.185 9.169,-37.287 -5.464,-35.776c-14.542,1.502 -12.165,16.7 -12.449,22.765c-0.406,8.666 -14.88,8.828 -18.319,1.68c-12.839,-26.683 67.47,-52.744 68.441,4.457c1.529,90.115 -4.606,142.478 8.745,125.682c6.413,-8.068 4.601,14.577 -14.374,14.043c-14.825,-0.417 -15.746,-12.699 -15.806,-12.838c-0.163,-0.378 -1.398,-2.752 -4.529,2.455c-5.758,9.574 -23.563,13.86 -34.309,7.452c-19.452,-11.601 -17.586,-50.019 -17.576,-60.523Z" style="fill:#a3be68;"/><path d="M837.87,833.96c-1.989,-17.804 -13.563,-117.038 37.205,-120.872c40.053,-3.025 39.54,41.861 39.692,47.563c0.209,7.862 -10.229,5.466 -21.366,5.547c-26.739,0.196 -26.698,0.116 -29.019,0.154c-4.598,0.076 -3.851,5.355 -3.867,8.038c-0.246,40.061 -0.57,90.738 20.652,97.72c25.551,8.406 30.388,-28.575 30.702,-28.945c7.615,-8.988 2.785,39.738 -27.711,43.488c-42.389,5.212 -45.151,-46.073 -46.288,-52.693Z" style="fill:#a3be68;"/><path d="M686.436,954.417c1.334,11.502 7.407,9.601 29.963,9.778c18.915,0.148 18.411,-4.943 17.089,-5.504c-0.34,-0.144 -29.731,4.237 -28.933,-16.458c0.913,-23.668 40.303,-20.457 41.217,-13.784c0.053,0.384 0.168,27.196 -0.276,30.58c-1.836,14.007 -11.127,14.457 -41.307,14.576c-15.115,0.06 -14.774,-1.611 -18.868,-4.694c-2.592,-1.953 -11.138,7.94 -26.975,4.139c-6.876,-1.65 -7.043,-6.771 -12.514,-2.303c-1.745,1.425 -12.616,5.98 -21.147,-0.853c-4.592,-3.678 -12.945,8.5 -25.714,1.228c-4.603,-2.621 -4.89,-1.442 -9.552,0.938c-2.525,1.289 -20.001,2.91 -25.268,-1.304c-3.767,-3.014 -4.467,-2.968 -8.322,-0.059c-3.078,2.322 -55.006,7.461 -68.095,-2.817c-16.339,-12.829 -0.457,-43.483 4.053,-31.615c0.855,2.249 -10.695,27.443 17.086,27.868c36.746,0.562 37.309,0.048 39.654,-2.095c6.051,-5.527 -0.347,-30.748 4.913,-32.799c13.474,-5.254 9.155,4.609 9.192,19.092c0.022,8.9 -1.769,17.03 16.458,15.439c14.381,-1.255 -0.819,-25.201 12.102,-28.009c8.075,-1.755 5.968,2.834 6.022,11.049c0.008,1.208 0.085,12.926 2.032,14.962c4.364,4.565 13.699,2.839 13.861,-4.24c0.383,-16.789 -2.92,-22.837 5.66,-24.316c8.48,-1.462 5.582,3.408 5.522,12.06c-0.018,2.631 -2.866,21.539 11.285,18.534c11.574,-2.458 0.714,-32.713 7.567,-35.349c3.708,-1.427 9.096,-3.421 9.071,1.568c-0.108,21.221 -5.189,36.034 15.375,33.702c14.77,-1.675 1.719,-31.542 10.423,-34.352c1.862,-0.601 8.37,-3.462 8.428,2.126c0.019,1.833 -0.095,1.802 -0.001,22.912Z" style="fill:#3a532c;"/><path d="M947.461,742.215c12.57,42.823 57.272,70.369 43.733,120.709c-4.91,18.257 -24.796,30.21 -48.838,20.978c-6.186,-2.376 -7.416,-5.506 -11.411,-0.167c-5.818,7.777 -3.63,-11.862 -5.021,-39.169c-0.289,-5.681 4.019,-5.372 4.582,-1.626c0.127,0.845 2.327,32.319 20.782,38.505c19.694,6.602 33.054,-26.592 5.377,-70.88c-6.76,-10.818 -46.886,-60.364 -22.972,-87.508c17.198,-19.521 43.747,-3.882 46.336,-5.743c2.916,-2.096 4.266,-4.525 5.064,-0.964c0.012,0.053 0.007,0.003 0.602,32.096c0.011,0.578 0.199,10.709 -3.823,6.127c-0.097,-0.11 -4.847,-42.663 -25.716,-36.011c-12.725,4.056 -8.728,23.276 -8.696,23.655Z" style="fill:#a2be68;"/><path d="M705.495,733.41c0.489,-0.33 1.269,0.124 1.759,-0.206c1.35,-0.911 2.192,-8.322 9.549,-14.8c20.774,-18.293 39.61,12.783 21.086,19.724c-9.852,3.691 -15.175,-7.945 -15.306,-8.071c-1.823,-1.768 -12.482,-7.119 -15.878,27.497c-0.675,6.883 -0.556,106.643 -0.247,111.376c0.857,13.092 13.188,11.681 9.987,15.364c-0.323,0.372 -42.546,0.329 -42.853,0.045c-3.648,-3.378 4.806,-1.983 7.741,-9.233c3.221,-7.958 1.116,-140.763 0.954,-141.812c-1.122,-7.268 -8.633,-6.607 -8.445,-9.241c0.143,-2.004 29.991,-10.321 30.271,-10.221c1.479,0.527 1.761,0.997 1.381,19.58Z" style="fill:#a2be68;"/><path d="M819.208,769.913c-1.6,8.882 -19.6,108.78 -21.047,110.828c-1.152,1.631 -10.858,2.098 -11.824,-2.527c-17.246,-82.599 -26.097,-154.212 -35.194,-158.252c-13.62,-6.049 4.072,-4.144 35.424,-4.816c7.724,-0.165 -0.639,4.745 -0.988,4.95c-7.597,4.461 -3.11,7.163 12.695,100.165c0.503,2.957 0.796,5.947 1.214,8.917c0.06,0.424 1.062,7.549 3.275,4.232c0.421,-0.631 12.738,-71.226 13.82,-77.424c3.508,-20.108 7.992,-32.69 -1.19,-36.118c-16.811,-6.277 22.562,-5.11 23.771,-3.89c3.979,4.015 -8.484,0.164 -13.055,18.694c-1.415,5.736 -2.534,11.514 -6.9,35.241Z" style="fill:#a3bf69;"/><path d="M1030.759,886.614c-0.654,-0.079 -15.925,0.935 -20.732,-10.299c-5.245,-12.261 -1.749,-113.143 -2.762,-152.269c-0.177,-6.845 -11.034,-1.671 -11.275,-6.152c-0.107,-1.975 7.916,-4.633 8.672,-4.883c16.955,-5.616 16.856,-22.936 21.556,-23.701c6.404,-1.042 4.054,12.644 4.297,22.53c0.144,5.844 13.568,1.942 15.588,4.488c4.19,5.28 -15.311,2.135 -15.547,6.142c-0.004,0.062 -0.047,135.243 -0.035,135.839c0.559,26.622 12.518,16.144 13.531,14.893c4.792,-5.916 4.745,-0.039 4.639,0.318c-3.386,11.468 -16.168,12.897 -17.933,13.095Z" style="fill:#a2be68;"/><path d="M958.157,951.377c0.068,-0.624 -0.761,-8.586 4.52,-16.357c1.717,-2.526 5.415,-5.261 7.212,-6.156c11.221,-5.587 28.455,-1.758 28.677,-1.624c4.79,2.891 -0.285,33.125 3.389,36.024c1.584,1.25 48.661,0.624 48.737,0.6c2.685,-0.848 -1.87,-7.985 -6.562,-16.885c-8.087,-15.341 -18.081,-12.385 -22.133,-8.797c-7.369,6.526 -8.985,-9.921 5.792,-12.281c21.147,-3.378 28.093,18.502 31.706,25.608c6.529,12.843 12.332,10.621 10.655,16.597c-2.284,8.139 -6.508,5.088 -65.368,5.626c-5.195,0.047 -4.335,1.823 -6.376,6.518c-5.441,12.515 -22.519,18.489 -25.601,15.331c-5.002,-5.125 10.812,-4.49 15.147,-18.274c3.239,-10.299 -26.987,6.932 -29.793,-25.931Z" style="fill:#3a542c;"/><path d="M792.825,903.233c4.869,-0.168 6.041,0.149 6.072,5.428c0.09,15.539 -0.04,40.115 0.148,47.285c0.22,8.372 10.354,8.132 18.115,8.064c4.529,-0.04 1.555,-2.351 0.556,-6.682c-6.885,-29.837 43.46,-27.281 33.409,1.837c-2.967,8.596 11.04,5.54 11.246,1.33c2.349,-47.961 -39.574,-30.405 -42.418,-31.605c-18.676,-7.876 63.044,-34.52 53.333,40.766c-0.858,6.652 -4.43,3.262 -56.17,3.757c-25.635,0.245 -29.587,-3.963 -29.57,-29.658c0.024,-35.784 -1.839,-38.387 5.28,-40.52Z" style="fill:#39522b;"/><path d="M604.016,852.162c-2.88,-39.701 -0.744,-65.732 12.34,-83.355c1.365,-1.838 14.456,-14.507 14.519,-14.522c3.444,-0.806 2.228,1.254 2.162,4.827c-1.28,69.291 5.34,120.897 -14.273,118.415c-12.898,-1.632 -13.434,-17.397 -14.748,-25.366Z" style="fill:#fefefe;"/><path d="M956.654,659.832c-0.346,-3.337 -3.341,-32.27 10.253,-40.667c29.645,-18.311 42.312,51.105 13.4,61.786c-16.939,6.258 -23.049,-18.656 -23.653,-21.119Z" style="fill:#a4bf6a;"/><path d="M948.876,663.119c-10.614,32.286 -35.508,18.717 -38.08,-4.754c-5.443,-49.672 29.814,-52.915 37.893,-24.455c2.675,9.423 0.479,26.891 0.187,29.209Z" style="fill:#a4bf6b;"/><path d="M898.562,624.906c-0.376,29.406 4.171,59.662 -29.506,60.498c-2.95,0.073 -2.738,-2.275 -1.74,-2.708c15.863,-6.879 14.099,-12.273 14.032,-74.634c-0.01,-9.333 2.175,-16.552 -6.099,-18.639c-2.72,-0.686 -1.932,-3.339 1.298,-3.06c19.898,1.721 42.095,-2.121 24.845,3.744c-2.644,0.899 -3.669,1.662 -2.831,34.799Z" style="fill:#a2be67;"/><path d="M867.458,761.507c-4.558,-0.34 -6.544,0.682 -6.258,-3.912c2.981,-47.964 18.484,-39.855 21.38,-37.919c11.816,7.899 10.085,40.259 7.942,41.235c-1.38,0.629 -13.283,0.514 -23.063,0.596Z" style="fill:#fefefd;"/><path d="M1028.888,619.85c0.998,-2.043 1.405,-2.022 0.994,-17.934c-0.131,-5.088 -5.235,-6.726 -0.427,-8.53c0.809,-0.304 9.379,-3.519 10.569,-2.229c2.748,2.976 -2.103,77.016 2.699,84.183c1.813,2.705 -0.335,3.607 -8.875,5.009c-3.103,0.509 -3.469,-1.705 -3.543,-1.779c-0.347,-0.6 0.053,-0.644 -0.313,-1.277c-0.168,-0.29 -0.163,-0.264 -2.204,-3.563c1.714,-4.291 6.314,-41.525 -1.841,-51.758l2.939,-2.121Z" style="fill:#a5c06c;"/><path d="M947.485,962.067c-0.019,0.9 1.804,11.395 -3.763,11.568c-37.375,1.163 -38.366,-0.788 -38.631,-3.883c-0.753,-8.777 3.905,-5.549 12.725,-5.641c7.714,-0.08 18.522,1.207 18.566,-3.549c0.29,-31.698 -11.908,-24.83 -18.689,-27.246c-6.767,-2.411 5.189,-12.432 19.711,-4.394c12.311,6.814 10.098,27.121 10.081,33.145Z" style="fill:#3b552e;"/><path d="M975.011,619.497c1.258,0.294 1.115,0.362 2.402,0.561c10.11,1.562 8.312,46.398 3.889,54.875c-1.723,3.303 -12.253,9.069 -13.332,-14.982c-1.539,-34.31 2.358,-37.878 7.04,-40.454Z" style="fill:#fefefd;"/><path d="M927.653,677.749c-10.792,-11.367 -8.074,-68.962 6.111,-56.6c1.899,1.655 5.778,5.036 4.661,31.134c-0.958,22.368 -1.4,25.454 -10.772,25.466Z" style="fill:#fefefd;"/><path d="M1025.949,621.97c8.156,10.233 3.556,47.467 1.841,51.758c-6.994,4.912 -9.859,5.003 -12.284,-3.116c-2.295,-7.687 -7.949,-57.996 10.442,-48.642Z" style="fill:#fdfdfc;"/><path d="M753.148,996.099c-9.612,-0.051 -6.431,-4.259 -5.909,-4.549c9.14,-5.087 16.184,-4.347 16.105,-31.006c-0.077,-26.129 -2.895,-30.083 6.415,-32.279c0.363,-0.086 4.169,-0.983 4.286,1.827c1.997,48.182 -3.268,53.944 -6.382,57.353c-4.308,4.715 -13.254,8.168 -14.515,8.655Z" style="fill:#39532c;"/><path d="M1028.888,619.85l-2.939,2.121c-18.391,-9.354 -12.738,40.955 -10.442,48.642c2.424,8.119 5.29,8.028 12.284,3.116c2.04,3.299 2.036,3.272 2.204,3.563c0.366,0.632 -0.034,0.677 0.313,1.277c-0.371,0.071 -0.403,-0.899 -0.775,-0.828c-1.197,0.229 -29.616,19.36 -27.314,-36.073c0.695,-16.729 12.298,-32.941 26.67,-21.817Z" style="fill:#a5c06c;"/><path d="M968.878,948.35c0.096,-0.461 0.32,-11.657 10.113,-14.782c10.153,-3.239 10.471,1.695 10.527,2.56c1.736,26.919 -0.732,27.454 -2.928,27.93c-15.759,3.417 -17.52,-13.824 -17.712,-15.708Z" style="fill:#fdfdfd;"/><path d="M715.525,942.227c2.806,-10.342 3.892,-11.648 14.632,-11.319c7.414,0.227 5.36,19.988 1.618,20.837c-14.194,3.218 -16.009,-8.031 -16.249,-9.518Z" style="fill:#fcfcfc;"/><path d="M826.943,955.822c-0.048,-1.128 -1.322,-6.706 2.65,-10.215c0.526,-0.464 4.16,-3.675 8.66,-1.385c13.14,6.687 -3.21,31.544 -11.31,11.601Z" style="fill:#fdfdfd;"/><path d="M1038.309,996.264c-0.882,-0.276 -10.757,-3.365 -4.004,-10.836c6.908,-7.642 18.858,8.631 4.004,10.836Z" style="fill:#39522b;"/><path d="M669.172,996.224c-15.368,-1.624 -3.111,-18.446 3.798,-10.622c6.386,7.232 -2.942,10.337 -3.798,10.622Z" style="fill:#3a542c;"/><path d="M685.926,996.285c-14.481,-2.278 -3.361,-18.046 3.951,-10.733c2.186,2.186 1.833,5.001 1.776,5.457c-0.546,4.356 -1.454,4.05 -5.727,5.277Z" style="fill:#38522a;"/><path d="M530.255,917.647c14.826,4.127 -1.508,18.764 -5.946,9.22c-3.592,-7.726 5.079,-9.084 5.946,-9.22Z" style="fill:#39532b;"/><path d="M510.529,918.148c0.871,-0.142 10.43,-1.7 8.413,7.142c-2.415,10.588 -20.6,0.528 -8.413,-7.142Z" style="fill:#3a542d;"/><path d="M727.115,903.056c0.85,0.105 9.081,1.126 6.224,8.718c-3.62,9.621 -20.683,-4.408 -6.224,-8.718Z" style="fill:#375129;"/></g></svg>